<svg version="1.1" id="Layer_1" xmlns="http://www.w3.org/2000/svg" xmlns:xlink="http://www.w3.org/1999/xlink" x="0px" y="0px"
	 width="100%" viewBox="0 0 500 500" enable-background="new 0 0 500 500" xml:space="preserve">
<path fill="#FFFFFF" opacity="1.000000" stroke="none" 
	d="
M284.000000,501.000000 
	C189.333359,501.000000 95.166710,501.000000 1.000051,501.000000 
	C1.000034,334.333405 1.000034,167.666794 1.000017,1.000140 
	C167.666565,1.000093 334.333130,1.000093 500.999756,1.000047 
	C500.999847,167.666519 500.999847,334.333038 500.999939,500.999786 
	C428.833344,501.000000 356.666656,501.000000 284.000000,501.000000 
M221.653870,311.299347 
	C223.796829,319.665192 225.493439,328.176178 228.158203,336.372375 
	C241.326797,376.875702 272.908234,397.696655 315.078400,394.407623 
	C338.808746,392.556763 360.984589,385.304871 382.650665,376.071716 
	C398.583710,369.281738 414.310272,362.041748 427.868134,350.997375 
	C431.255463,348.238037 435.727814,345.277985 434.265137,340.102325 
	C432.726715,334.658813 427.221985,334.584015 422.690704,334.064209 
	C410.581726,332.675018 399.343903,334.400940 388.113464,340.302765 
	C365.531677,352.170013 341.918427,361.821259 316.155365,364.402435 
	C302.519409,365.768616 289.204498,364.601990 277.404083,356.467621 
	C263.734741,347.045013 258.061920,332.766602 253.993835,317.615204 
	C252.427292,311.780670 251.582108,305.752441 250.412796,299.835388 
	C266.245300,297.801117 281.113098,296.127869 295.905029,293.941315 
	C327.747437,289.234375 359.028503,282.152039 388.847534,269.746765 
	C397.233124,266.258209 405.698334,262.343475 413.025726,257.088562 
	C421.771210,250.816650 420.871857,241.433289 412.133209,235.211456 
	C407.251923,231.736008 402.353699,228.276871 397.350433,224.981415 
	C375.276367,210.442123 352.449677,197.537979 325.766541,193.528656 
	C297.077576,189.217957 272.778595,197.431992 253.619980,219.529221 
	C237.753937,237.828873 229.565063,259.909882 222.927994,282.731995 
	C222.307434,284.865814 221.032089,286.809204 220.185242,287.974701 
	C221.044174,251.948120 223.077759,215.959137 233.145264,181.171341 
	C238.784241,161.686203 246.802444,142.889618 253.861618,123.472023 
	C281.903900,125.881699 308.781189,128.129318 335.644928,130.528870 
	C347.065216,131.548981 358.462006,133.918716 369.860809,133.863983 
	C392.841492,133.753616 413.501434,124.596786 433.856506,114.994026 
	C437.103210,113.462341 436.832092,110.711624 433.372894,108.121223 
	C424.828918,101.723167 415.181183,97.326981 404.726898,96.048103 
	C363.421631,90.995255 322.113007,85.814369 280.687988,81.937889 
	C236.365509,77.790268 191.897339,76.367546 147.463379,81.028679 
	C128.969009,82.968742 110.982483,87.029861 94.517357,96.039742 
	C77.085823,105.578461 65.979744,119.599998 64.424141,140.130890 
	C63.517990,152.090332 69.192139,159.337143 81.097313,160.357574 
	C109.716400,162.810608 136.746674,157.322723 161.992371,143.518738 
	C167.304550,140.614105 172.429840,137.367737 178.277130,133.901932 
	C177.867615,135.554199 177.643997,136.486588 177.405304,137.415115 
	C171.449295,160.584656 164.685822,183.582718 159.722641,206.962952 
	C152.215668,242.326309 148.819260,278.110199 155.094223,314.127350 
	C158.774429,335.251160 165.544510,355.329437 177.542114,373.355560 
	C191.163895,393.821991 211.246506,405.505402 233.521057,413.976379 
	C238.875259,416.012573 244.714661,416.829803 250.384003,417.935364 
	C251.609512,418.174377 253.063766,417.240387 254.412689,416.846710 
	C253.975464,415.525055 253.793961,414.038513 253.063614,412.905853 
	C234.642059,384.336578 225.381042,352.651093 221.163406,319.257904 
	C220.815094,316.500000 221.035141,313.670319 221.653870,311.299347 
z"/>
<path fill="#53565C" opacity="1.000000" stroke="none" 
	d="
M220.991104,310.873993 
	C221.035141,313.670319 220.815094,316.500000 221.163406,319.257904 
	C225.381042,352.651093 234.642059,384.336578 253.063614,412.905853 
	C253.793961,414.038513 253.975464,415.525055 254.412689,416.846710 
	C253.063766,417.240387 251.609512,418.174377 250.384003,417.935364 
	C244.714661,416.829803 238.875259,416.012573 233.521057,413.976379 
	C211.246506,405.505402 191.163895,393.821991 177.542114,373.355560 
	C165.544510,355.329437 158.774429,335.251160 155.094223,314.127350 
	C148.819260,278.110199 152.215668,242.326309 159.722641,206.962952 
	C164.685822,183.582718 171.449295,160.584656 177.405304,137.415115 
	C177.643997,136.486588 177.867615,135.554199 178.277130,133.901932 
	C172.429840,137.367737 167.304550,140.614105 161.992371,143.518738 
	C136.746674,157.322723 109.716400,162.810608 81.097313,160.357574 
	C69.192139,159.337143 63.517990,152.090332 64.424141,140.130890 
	C65.979744,119.599998 77.085823,105.578461 94.517357,96.039742 
	C110.982483,87.029861 128.969009,82.968742 147.463379,81.028679 
	C191.897339,76.367546 236.365509,77.790268 280.687988,81.937889 
	C322.113007,85.814369 363.421631,90.995255 404.726898,96.048103 
	C415.181183,97.326981 424.828918,101.723167 433.372894,108.121223 
	C436.832092,110.711624 437.103210,113.462341 433.856506,114.994026 
	C413.501434,124.596786 392.841492,133.753616 369.860809,133.863983 
	C358.462006,133.918716 347.065216,131.548981 335.644928,130.528870 
	C308.781189,128.129318 281.903900,125.881699 253.861618,123.472023 
	C246.802444,142.889618 238.784241,161.686203 233.145264,181.171341 
	C223.077759,215.959137 221.044174,251.948120 220.086273,288.883057 
	C220.321899,296.818909 220.656509,303.846466 220.991104,310.873993 
z"/>
<path fill="#636262" opacity="1.000000" stroke="none" 
	d="
M221.322479,311.086670 
	C220.656509,303.846466 220.321899,296.818909 220.024017,289.316193 
	C221.032089,286.809204 222.307434,284.865814 222.927994,282.731995 
	C229.565063,259.909882 237.753937,237.828873 253.619980,219.529221 
	C272.778595,197.431992 297.077576,189.217957 325.766541,193.528656 
	C352.449677,197.537979 375.276367,210.442123 397.350433,224.981415 
	C402.353699,228.276871 407.251923,231.736008 412.133209,235.211456 
	C420.871857,241.433289 421.771210,250.816650 413.025726,257.088562 
	C405.698334,262.343475 397.233124,266.258209 388.847534,269.746765 
	C359.028503,282.152039 327.747437,289.234375 295.905029,293.941315 
	C281.113098,296.127869 266.245300,297.801117 250.412796,299.835388 
	C251.582108,305.752441 252.427292,311.780670 253.993835,317.615204 
	C258.061920,332.766602 263.734741,347.045013 277.404083,356.467621 
	C289.204498,364.601990 302.519409,365.768616 316.155365,364.402435 
	C341.918427,361.821259 365.531677,352.170013 388.113464,340.302765 
	C399.343903,334.400940 410.581726,332.675018 422.690704,334.064209 
	C427.221985,334.584015 432.726715,334.658813 434.265137,340.102325 
	C435.727814,345.277985 431.255463,348.238037 427.868134,350.997375 
	C414.310272,362.041748 398.583710,369.281738 382.650665,376.071716 
	C360.984589,385.304871 338.808746,392.556763 315.078400,394.407623 
	C272.908234,397.696655 241.326797,376.875702 228.158203,336.372375 
	C225.493439,328.176178 223.796829,319.665192 221.322479,311.086670 
M295.292297,263.846527 
	C321.056824,259.531738 346.509979,254.040298 371.861328,244.257828 
	C355.672272,234.218658 339.905365,226.069473 322.047668,223.136810 
	C305.299713,220.386383 290.293671,223.985672 278.317993,236.869400 
	C269.981384,245.838104 264.078217,256.209351 259.395599,268.737091 
	C271.751373,267.047729 283.088562,265.497650 295.292297,263.846527 
z"/>
<path fill="#FDFDFD" opacity="1.000000" stroke="none" 
	d="
M294.859009,263.897034 
	C283.088562,265.497650 271.751373,267.047729 259.395599,268.737091 
	C264.078217,256.209351 269.981384,245.838104 278.317993,236.869400 
	C290.293671,223.985672 305.299713,220.386383 322.047668,223.136810 
	C339.905365,226.069473 355.672272,234.218658 371.861328,244.257828 
	C346.509979,254.040298 321.056824,259.531738 294.859009,263.897034 
z"/>
</svg>